<svg xmlns="http://www.w3.org/2000/svg" xmlns:xlink="http://www.w3.org/1999/xlink" version="1.1" id="Layer_1" x="0px" y="0px" viewBox="0 0 263.31 56.83" style="enable-background:new 0 0 263.31 56.83;" xml:space="preserve">
<style type="text/css">
	.st0{fill:#fff;}
</style>
<g>
	<g>
		<path class="st0" d="M35.74,34.65c-1.77,1.2-3.84,5.22-3.84,5.22l-1.07-0.01c0.7-1.53,1.14-2.8,1.41-3.84    c-0.27,0.09-0.43,0.14-0.43,0.14c-2.13,0.73-4.3,1.1-6.22,1.13c2.02,3.02,5.71,3.56,5.71,3.56c5.18,0.7,9.11-2.14,11.22-4.2    C38.16,34.27,35.74,34.65,35.74,34.65z"/>
		<path class="st0" d="M21.03,30.96c-0.04,0.21-0.06,0.35-0.06,0.35c-2.26,2.58-0.01,3.81-0.01,3.81c0.08,0.04,0.17,0.08,0.26,0.11    C20.83,33.73,20.82,32.29,21.03,30.96z"/>
		<path class="st0" d="M52.53,23.51c0,0,3.41-8.49-4.4-14.31c0,0-12.52-8.23-19.52,5.52c0,0-5.01-5-11.18-1.12    c-5.28,3.32-4.4,7.8-3.93,10.04c0,0-9.97,2.93-9.46,13.54C4.52,47,16.2,48.28,16.2,48.28l34.3-0.16c0,0,11.9-1,11.72-11.4    C62.04,26.32,52.53,23.51,52.53,23.51z M31.05,42.54c-6.62-0.07-8.98-5.04-8.98-5.04c-0.13-0.26-0.25-0.53-0.36-0.79    c-1.82-0.68-2.89-1.95-2.64-3.86c0.25-1.93,2.41-3.81,2.41-3.81c-0.07,0.2-0.14,0.44-0.2,0.69c1.12-4.26,4.29-7.25,4.29-7.25    s2.38-2.54,4.97-3.84l4.51,0.7C24.83,23.5,24.31,32.12,24.31,32.12c-0.07,1.3,0.1,2.4,0.4,3.34c0.76-0.06,1.31-0.14,1.31-0.14    c2.52-0.39,4.7-1.07,6.54-1.87c-0.06-1.69-0.83-2.12-0.83-2.12S30.8,30.27,27,29.65l0.36-0.51c0,0,1.89,0.42,4.02,0.01    c2.32-0.44,4.45-2.03,6.8-5.28l1.14-0.05c-2.31,3.07-2.47,5.39-2.09,6.91c2.3-1.72,3.4-3.22,3.4-3.22    c4.16-5.81-1.62-4.93-1.62-4.93l1.74-2.05c8.83,1.91,0.73,9.89,0.73,9.89c-0.94,0.97-1.98,1.79-3.02,2.5    c0.13,0.14,1.66,1.72,4.62,3.15c0.77-0.82,1.18-1.41,1.18-1.41l1.16,0.21C38.52,43.17,31.05,42.54,31.05,42.54z M34.18,25.97    c-0.04,0.97-0.84,1.76-1.82,1.78c-1.08,0.02-1.94-0.87-1.9-1.94c0.04-0.97,0.84-1.76,1.82-1.78    C33.36,24.01,34.23,24.9,34.18,25.97z"/>
	</g>
</g>
</svg>