<svg xmlns="http://www.w3.org/2000/svg" width="360" height="173" viewBox="0 0 360 173">
    <path fill="#429146" fill-rule="evenodd" d="M121.232.284c10.873.248 18.532 7.737 29.515 7.737 11.168 0 13.745-6.023 30.068-6.023 16.322 0 15.463 4.302 30.067 4.302 14.06 0 18.566-5.583 28.85-5.998V.277c.191 0 .382.003.572.007.212-.004.427-.007.645-.007v.031c10.523.528 18.092 7.713 28.85 7.713 11.167 0 13.744-6.023 30.067-6.023 16.322 0 15.463 4.302 30.067 4.302 14.604 0 18.9-6.023 30.067-6.023.002 10.898-.268 68.38-.81 172.446H.151C.05 68.083 0 10.602 0 .277c11.168 0 19.863 7.744 31.03 7.744 11.168 0 13.746-6.023 30.068-6.023C77.42 1.998 76.56 6.3 91.165 6.3c14.36 0 18.753-5.824 29.514-6.018l.001-.005c.087 0 .173 0 .26.002l.292-.002v.007z"/>
</svg>
