<?xml version="1.0" standalone="no"?>
<!DOCTYPE svg PUBLIC "-//W3C//DTD SVG 20010904//EN"
 "http://www.w3.org/TR/2001/REC-SVG-20010904/DTD/svg10.dtd">
<svg version="1.0" xmlns="http://www.w3.org/2000/svg"
 width="504.000000pt" height="504.000000pt" viewBox="0 0 504.000000 504.000000"
 preserveAspectRatio="xMidYMid meet">

<g transform="translate(0.000000,504.000000) scale(0.100000,-0.100000)"
fill="#0072BC" stroke="none">
<path d="M0 2525 l0 -2515 2520 0 2520 0 0 2515 0 2515 -2520 0 -2520 0 0
-2515z m4930 2220 l0 -195 -2410 0 -2410 0 0 195 0 195 2410 0 2410 0 0 -195z
m0 -2440 l0 -2185 -2410 0 -2410 0 0 2185 0 2185 2410 0 2410 0 0 -2185z"/>
<path d="M227 4823 c-4 -3 -7 -42 -7 -85 l0 -78 280 0 280 0 0 85 0 85 -273 0
c-151 0 -277 -3 -280 -7z"/>
<path d="M2690 4740 l0 -30 223 2 222 3 3 28 3 27 -225 0 -226 0 0 -30z"/>
<path d="M3250 4740 l0 -30 223 2 222 3 3 28 3 27 -225 0 -226 0 0 -30z"/>
<path d="M3810 4740 l0 -30 223 2 222 3 3 28 3 27 -225 0 -226 0 0 -30z"/>
<path d="M4370 4740 l0 -30 223 2 222 3 3 28 3 27 -225 0 -226 0 0 -30z"/>
<path d="M430 4178 c-25 -13 -55 -39 -68 -58 -20 -30 -23 -45 -20 -97 4 -71
25 -106 79 -138 47 -28 124 -26 172 4 109 67 99 239 -17 292 -54 25 -92 24
-146 -3z"/>
<path d="M780 4085 l0 -55 535 0 535 0 0 55 0 55 -535 0 -535 0 0 -55z"/>
<path d="M3590 4055 l0 -86 83 3 82 3 3 83 3 82 -86 0 -85 0 0 -85z"/>
<path d="M3870 4055 l0 -86 83 3 82 3 3 83 3 82 -86 0 -85 0 0 -85z"/>
<path d="M4150 4055 l0 -86 83 3 82 3 3 83 3 82 -86 0 -85 0 0 -85z"/>
<path d="M780 3945 l0 -25 645 0 645 0 0 25 0 25 -645 0 -645 0 0 -25z"/>
<path d="M340 2840 l0 -800 1060 0 1060 0 0 800 0 800 -1060 0 -1060 0 0 -800z"/>
<path d="M2630 3610 l0 -30 393 2 392 3 3 28 3 27 -395 0 -396 0 0 -30z"/>
<path d="M3582 3613 l3 -28 475 0 475 0 3 28 3 27 -481 0 -481 0 3 -27z"/>
<path d="M2632 3443 l3 -28 363 -3 362 -2 0 30 0 30 -366 0 -365 0 3 -27z"/>
<path d="M3582 3273 l3 -198 263 -3 262 -2 0 200 0 200 -265 0 -265 0 2 -197z"/>
<path d="M4180 3270 l0 -200 260 0 260 0 0 200 0 200 -260 0 -260 0 0 -200z"/>
<path d="M2630 3275 l0 -25 335 0 335 0 0 25 0 25 -335 0 -335 0 0 -25z"/>
<path d="M2630 3105 l0 -25 365 0 365 0 0 25 0 25 -365 0 -365 0 0 -25z"/>
<path d="M2630 2940 l0 -30 310 0 310 0 0 30 0 30 -310 0 -310 0 0 -30z"/>
<path d="M3582 2883 l3 -28 418 -3 417 -2 0 30 0 30 -421 0 -420 0 3 -27z"/>
<path d="M2630 2770 l0 -30 365 0 365 0 0 30 0 30 -365 0 -365 0 0 -30z"/>
<path d="M3580 2545 l0 -195 265 0 265 0 0 195 0 195 -265 0 -265 0 0 -195z"/>
<path d="M4180 2545 l0 -195 260 0 260 0 0 195 0 195 -260 0 -260 0 0 -195z"/>
<path d="M2632 2603 l3 -28 333 -3 332 -2 0 30 0 30 -336 0 -335 0 3 -27z"/>
<path d="M2630 2435 l0 -25 310 0 310 0 0 25 0 25 -310 0 -310 0 0 -25z"/>
<path d="M2630 2265 l0 -25 365 0 365 0 0 25 0 25 -365 0 -365 0 0 -25z"/>
<path d="M3587 2173 c-4 -3 -7 -192 -7 -420 l0 -413 560 0 560 0 0 420 0 420
-553 0 c-305 0 -557 -3 -560 -7z"/>
<path d="M397 1923 c-4 -3 -7 -17 -7 -30 l0 -23 956 0 955 0 -3 28 -3 27 -946
3 c-520 1 -949 -1 -952 -5z"/>
<path d="M390 1730 l0 -30 956 0 955 0 -3 28 -3 27 -952 3 -953 2 0 -30z"/>
<path d="M390 1560 l0 -30 673 2 672 3 3 28 3 27 -675 0 -676 0 0 -30z"/>
<path d="M569 1191 c-79 -26 -124 -92 -117 -176 3 -33 13 -64 28 -85 26 -36
90 -69 135 -70 45 0 116 40 143 80 20 30 23 45 20 97 -4 69 -25 106 -74 135
-36 21 -100 30 -135 19z"/>
<path d="M900 1170 l0 -30 475 0 475 0 0 30 0 30 -475 0 -475 0 0 -30z"/>
<path d="M3580 750 l0 -420 560 0 560 0 0 420 0 420 -560 0 -560 0 0 -420z"/>
<path d="M900 1000 l0 -30 1118 2 1117 3 3 28 3 27 -1120 0 -1121 0 0 -30z"/>
<path d="M900 890 l0 -30 895 0 895 0 0 30 0 30 -895 0 -895 0 0 -30z"/>
<path d="M545 566 c-61 -28 -95 -85 -95 -160 0 -84 75 -156 162 -156 103 0
160 53 166 155 3 50 0 65 -20 94 -12 19 -35 43 -50 54 -34 26 -122 33 -163 13z"/>
<path d="M900 555 l0 -25 475 0 475 0 0 25 0 25 -475 0 -475 0 0 -25z"/>
<path d="M900 385 l0 -25 840 0 840 0 0 25 0 25 -840 0 -840 0 0 -25z"/>
</g>
</svg>
