<?xml version="1.0" standalone="no"?>
<!DOCTYPE svg PUBLIC "-//W3C//DTD SVG 20010904//EN"
 "http://www.w3.org/TR/2001/REC-SVG-20010904/DTD/svg10.dtd">
<svg version="1.0" xmlns="http://www.w3.org/2000/svg"
 width="580.000000pt" height="429.000000pt" viewBox="0 0 580.000000 429.000000"
 preserveAspectRatio="xMidYMid meet">

<g transform="translate(0.000000,429.000000) scale(0.100000,-0.100000)"
fill="#76B072" fill-rule="evenodd" stroke="none">
<path d="M965 4259 c-99 -16 -230 -61 -326 -110 -293 -151 -485 -391 -582
-729 -21 -74 -21 -85 -25 -1225 -2 -825 0 -1173 8 -1230 41 -281 207 -558 442
-735 102 -77 256 -152 383 -188 l100 -27 1880 0 1880 0 98 27 c396 109 697
408 814 808 l28 95 3 1150 c3 1224 3 1225 -45 1380 -52 165 -139 310 -266 442
-171 178 -363 285 -598 333 -95 20 -138 20 -1921 19 -1002 -1 -1845 -5 -1873
-10z m3786 -251 c340 -94 586 -347 666 -686 17 -72 18 -151 18 -1177 0 -1003
-2 -1107 -17 -1177 -81 -361 -345 -625 -706 -706 -71 -16 -212 -17 -1867 -17
-1664 0 -1796 1 -1868 17 -395 88 -671 405 -707 811 -13 148 -13 1996 0 2144
20 224 103 407 255 558 140 140 328 231 525 254 41 5 869 8 1840 7 l1765 -1
96 -27z"/>
<path d="M1980 3241 c-89 -27 -171 -97 -211 -179 l-24 -47 0 -610 0 -610 27
-50 c32 -62 103 -129 166 -158 42 -20 69 -23 264 -27 l217 -5 -155 -250 c-86
-137 -167 -269 -181 -292 l-25 -43 129 0 129 0 164 265 c90 146 168 265 172
265 4 0 8 -119 8 -265 l0 -265 110 0 110 0 0 267 c0 214 3 265 13 255 6 -7 82
-126 168 -265 l156 -252 128 -3 c116 -2 127 -1 121 14 -4 10 -83 140 -176 291
-94 150 -170 276 -170 278 0 3 87 5 193 5 215 0 269 10 345 62 45 31 92 89
120 148 15 31 17 96 17 635 l0 600 -28 57 c-35 71 -110 140 -183 167 -54 21
-71 21 -817 20 -419 0 -773 -4 -787 -8z m1534 -221 c14 -5 35 -24 46 -42 19
-32 20 -51 20 -571 0 -590 1 -580 -60 -612 -44 -23 -1456 -23 -1500 0 -63 32
-60 6 -60 613 l0 554 34 34 34 34 730 0 c451 0 741 -4 756 -10z"/>
<path d="M2662 2408 l3 -443 105 0 105 0 3 443 2 442 -110 0 -110 0 2 -442z"/>
<path d="M3102 2313 l3 -348 105 0 105 0 3 348 2 347 -110 0 -110 0 2 -347z"/>
<path d="M2222 2243 l3 -278 105 0 105 0 0 275 0 275 -108 3 -107 3 2 -278z"/>
<path d="M4465 3155 l-25 -24 0 -284 c0 -272 1 -285 21 -311 l20 -26 208 0
c274 0 251 -23 251 257 l0 210 -105 102 -105 101 -121 0 c-114 0 -121 -1 -144
-25z m235 -88 c0 -104 7 -111 114 -116 l86 -3 0 -192 c0 -136 -4 -196 -12
-204 -15 -15 -360 -17 -389 -2 -18 10 -19 24 -19 294 0 155 3 286 7 289 3 4
53 7 110 7 l103 0 0 -73z m123 -26 c20 -19 37 -39 37 -44 0 -4 -26 -7 -57 -5
l-58 3 -3 60 -3 59 23 -19 c13 -11 40 -35 61 -54z"/>
<path d="M4525 2879 c-14 -22 14 -30 101 -27 71 2 89 6 89 18 0 12 -18 16 -92
18 -60 2 -94 -1 -98 -9z"/>
<path d="M4523 2758 c3 -10 45 -13 167 -13 122 0 164 3 168 13 3 9 -35 12
-168 12 -133 0 -171 -3 -167 -12z"/>
<path d="M4524 2649 c-13 -22 24 -29 166 -29 142 0 179 7 166 29 -5 7 -60 11
-166 11 -106 0 -161 -4 -166 -11z"/>
<path d="M4605 2323 c-47 -24 -83 -63 -96 -101 -14 -41 -7 -49 49 -54 31 -3
42 0 42 10 0 8 15 29 34 48 44 44 103 48 141 9 43 -42 34 -76 -34 -135 -66
-57 -91 -100 -91 -154 l0 -36 50 0 c49 0 50 0 50 31 0 26 13 44 74 104 56 54
76 81 81 108 13 70 -30 139 -107 171 -48 21 -154 20 -193 -1z"/>
<path d="M4650 1825 l0 -55 55 0 55 0 0 55 0 55 -55 0 -55 0 0 -55z"/>
<path d="M4375 1555 l-25 -24 0 -220 c0 -121 3 -227 6 -236 8 -20 56 -45 89
-45 16 0 25 -6 25 -15 0 -9 7 -29 15 -45 24 -47 59 -52 363 -48 l274 3 24 28
c24 28 24 30 24 246 0 255 -2 261 -86 270 -47 6 -49 8 -52 38 -2 20 -13 40
-29 53 -24 19 -40 20 -315 20 l-289 0 -24 -25z m603 -21 c21 -14 22 -22 22
-160 0 -79 -3 -144 -7 -143 -5 0 -28 28 -53 62 -37 52 -51 63 -78 65 -41 4
-50 -3 -124 -100 -67 -88 -78 -92 -141 -49 -69 47 -81 47 -147 7 -32 -20 -61
-36 -64 -36 -3 0 -6 76 -6 169 0 164 1 170 22 185 19 14 64 16 288 16 224 0
269 -2 288 -16z m142 -114 c19 -19 20 -33 20 -218 0 -163 -3 -201 -16 -220
-15 -22 -17 -22 -303 -22 -304 0 -311 1 -311 47 l0 23 225 0 c236 0 274 6 289
45 3 9 6 92 6 184 0 92 3 171 7 174 14 14 64 6 83 -13z m-233 -112 c45 -51
113 -157 113 -177 0 -12 -5 -31 -10 -42 -10 -18 -24 -19 -300 -19 -276 0 -290
1 -300 19 -5 11 -10 24 -10 30 0 14 115 91 135 91 10 0 43 -16 75 -36 76 -47
98 -41 163 47 68 90 85 109 100 109 8 0 23 -10 34 -22z"/>
<path d="M4555 1455 c-33 -32 -33 -84 -2 -119 61 -71 176 -12 153 79 -16 65
-104 88 -151 40z m99 -18 c21 -16 24 -60 6 -82 -19 -23 -66 -19 -84 7 -21 30
-20 44 4 68 23 23 49 26 74 7z"/>
</g>
</svg>
