<?xml version="1.0" standalone="no"?>
<!DOCTYPE svg PUBLIC "-//W3C//DTD SVG 20010904//EN"
 "http://www.w3.org/TR/2001/REC-SVG-20010904/DTD/svg10.dtd">
<svg version="1.0" xmlns="http://www.w3.org/2000/svg"
 width="580.000000pt" height="429.000000pt" viewBox="0 0 580.000000 429.000000"
 preserveAspectRatio="xMidYMid meet">

<g transform="translate(0.000000,429.000000) scale(0.100000,-0.100000)"
fill="#76B072" stroke="none">
<path d="M1025 4259 c-436 -63 -816 -387 -949 -809 -57 -179 -57 -185 -53
-1354 3 -1049 4 -1073 24 -1156 124 -501 519 -853 1021 -910 68 -8 629 -10
1867 -8 1946 4 1794 -1 1986 63 361 121 661 442 754 810 43 167 47 288 42
1350 -5 1039 -4 1023 -52 1190 -103 355 -394 655 -751 774 -189 64 -102 61
-2054 60 -976 -1 -1802 -5 -1835 -10z m3677 -303 c345 -67 611 -324 696 -674
14 -59 16 -189 19 -1062 3 -633 0 -1031 -6 -1095 -14 -135 -33 -203 -86 -311
-116 -237 -309 -396 -570 -467 l-80 -22 -1805 0 -1805 0 -85 23 c-309 82 -552
325 -633 632 l-22 85 0 1090 0 1090 28 88 c100 322 343 549 657 617 81 18 174
19 1852 19 1483 1 1778 -1 1840 -13z"/>
<path d="M4523 3176 l-28 -24 -3 -269 c-4 -292 1 -332 43 -351 17 -8 93 -12
216 -12 258 0 239 -21 239 264 l0 214 -107 101 -108 101 -112 0 c-104 0 -114
-2 -140 -24z m227 -91 c0 -103 12 -115 120 -115 l80 0 -2 -202 -3 -203 -194
-3 c-134 -2 -198 1 -207 9 -11 9 -14 64 -14 281 0 166 4 277 10 289 10 17 22
19 110 19 l100 0 0 -75z m170 -72 c0 -2 -29 -3 -65 -3 l-65 0 0 61 0 60 65
-57 c36 -32 65 -59 65 -61z"/>
<path d="M4577 2894 c-17 -17 12 -24 99 -24 77 0 94 3 94 15 0 12 -17 15 -93
15 -52 0 -97 -3 -100 -6z"/>
<path d="M4582 2773 c3 -16 19 -18 163 -18 144 0 160 2 163 18 3 16 -10 17
-163 17 -153 0 -166 -1 -163 -17z"/>
<path d="M4580 2660 c0 -20 4 -20 163 -18 136 3 162 5 162 18 0 13 -26 15
-162 18 -159 2 -163 2 -163 -18z"/>
<path d="M2210 2090 c0 -539 3 -980 7 -980 18 0 1913 975 1911 982 -3 9 -1896
978 -1910 978 -5 0 -8 -441 -8 -980z m798 245 c258 -132 468 -243 466 -247 -5
-8 -931 -481 -951 -486 -10 -3 -13 100 -13 488 0 411 2 491 14 488 7 -2 225
-111 484 -243z"/>
<path d="M4654 2321 c-49 -22 -94 -77 -97 -118 -2 -26 1 -28 45 -33 45 -6 48
-4 59 22 39 93 189 88 189 -6 0 -27 -11 -43 -64 -94 -64 -61 -91 -109 -84
-154 3 -20 10 -23 51 -26 43 -3 47 -1 47 20 1 34 19 60 78 113 60 54 82 90 82
135 0 56 -53 127 -113 149 -45 17 -147 13 -193 -8z"/>
<path d="M4707 1873 c-4 -3 -7 -28 -7 -55 l0 -48 55 0 55 0 0 55 0 55 -48 0
c-27 0 -52 -3 -55 -7z"/>
<path d="M4375 1555 l-25 -24 0 -220 c0 -121 3 -227 6 -236 8 -20 56 -45 89
-45 16 0 25 -6 25 -15 0 -9 7 -29 15 -45 24 -47 59 -52 363 -48 l274 3 24 28
c24 28 24 30 24 246 0 255 -2 261 -86 270 -47 6 -49 8 -52 38 -2 20 -13 40
-29 53 -24 19 -40 20 -315 20 l-289 0 -24 -25z m603 -21 c21 -14 22 -22 22
-160 0 -79 -3 -144 -7 -143 -5 0 -28 28 -53 62 -37 52 -51 63 -78 65 -41 4
-50 -3 -124 -100 -67 -88 -78 -92 -141 -49 -69 47 -81 47 -147 7 -32 -20 -61
-36 -64 -36 -3 0 -6 76 -6 169 0 164 1 170 22 185 19 14 64 16 288 16 224 0
269 -2 288 -16z m142 -114 c19 -19 20 -33 20 -218 0 -163 -3 -201 -16 -220
-15 -22 -17 -22 -303 -22 -304 0 -311 1 -311 47 l0 23 225 0 c236 0 274 6 289
45 3 9 6 92 6 184 0 92 3 171 7 174 14 14 64 6 83 -13z m-233 -112 c45 -51
113 -157 113 -177 0 -12 -5 -31 -10 -42 -10 -18 -24 -19 -300 -19 -276 0 -290
1 -300 19 -5 11 -10 24 -10 30 0 14 115 91 135 91 10 0 43 -16 75 -36 76 -47
98 -41 163 47 68 90 85 109 100 109 8 0 23 -10 34 -22z"/>
<path d="M4555 1455 c-33 -32 -33 -84 -2 -119 61 -71 176 -12 153 79 -16 65
-104 88 -151 40z m99 -18 c21 -16 24 -60 6 -82 -19 -23 -66 -19 -84 7 -21 30
-20 44 4 68 23 23 49 26 74 7z"/>
</g>
</svg>
