<?xml version="1.0" standalone="no"?>
<!DOCTYPE svg PUBLIC "-//W3C//DTD SVG 20010904//EN"
 "http://www.w3.org/TR/2001/REC-SVG-20010904/DTD/svg10.dtd">
<svg version="1.0" xmlns="http://www.w3.org/2000/svg"
 width="64.000000pt" height="64.000000pt" viewBox="0 0 64.000000 64.000000"
 preserveAspectRatio="xMidYMid meet">

<g transform="translate(0.000000,64.000000) scale(0.100000,-0.100000)"
fill="#FFFFFF" stroke="none">
<path d="M82 618 c-7 -7 -12 -25 -12 -40 0 -21 -5 -28 -20 -28 -11 0 -20 -7
-20 -15 0 -8 9 -15 20 -15 17 0 20 -7 20 -40 0 -33 -3 -40 -20 -40 -26 0 -26
-16 0 -23 16 -4 20 -14 20 -46 0 -34 -3 -41 -20 -41 -11 0 -20 -4 -20 -10 0
-5 9 -10 20 -10 17 0 20 -7 20 -41 0 -32 -4 -42 -20 -46 -11 -3 -20 -9 -20
-14 0 -5 9 -9 20 -9 17 0 20 -7 20 -40 0 -33 -3 -40 -20 -40 -11 0 -20 -7 -20
-15 0 -8 9 -15 20 -15 15 0 20 -7 20 -28 0 -50 7 -52 241 -52 259 0 249 -4
249 106 0 43 -4 74 -10 74 -6 0 -10 -29 -10 -68 0 -40 -5 -73 -12 -80 -8 -8
-63 -12 -180 -12 l-168 0 0 290 0 290 168 0 c117 0 172 -4 180 -12 8 -8 12
-55 12 -145 0 -82 4 -133 10 -133 6 0 10 53 10 139 0 114 -3 143 -16 155 -13
14 -49 16 -233 16 -155 0 -220 -3 -229 -12z m88 -298 l0 -290 -28 0 c-32 0
-52 16 -52 43 0 13 6 17 22 15 15 -2 24 3 26 15 3 13 -3 17 -22 17 -24 0 -26
4 -26 40 0 35 3 39 22 37 15 -1 23 4 26 17 3 16 0 18 -22 12 -25 -6 -26 -5
-26 39 0 43 1 45 25 39 21 -5 25 -3 25 16 0 19 -4 21 -25 16 -24 -6 -25 -4
-25 39 0 43 1 45 25 39 21 -5 25 -3 25 16 0 19 -4 21 -25 16 -24 -6 -25 -4
-25 34 0 36 2 40 26 40 19 0 25 4 22 18 -2 11 -11 16 -26 14 -16 -2 -22 2 -22
15 0 27 20 43 52 43 l28 0 0 -290z"/>
<path d="M265 510 c-4 -6 -15 -8 -26 -5 -23 8 -25 -7 -4 -25 13 -10 19 -10 35
5 11 10 20 22 20 27 0 11 -18 10 -25 -2z"/>
<path d="M315 500 c-3 -5 0 -13 8 -16 24 -9 172 0 170 11 -4 14 -170 19 -178
5z"/>
<path d="M270 405 c-10 -12 -16 -13 -27 -4 -20 18 -29 1 -10 -18 16 -16 18
-16 39 5 12 12 19 24 16 27 -3 3 -11 -1 -18 -10z"/>
<path d="M315 400 c-3 -5 0 -13 8 -16 24 -9 172 0 170 11 -4 14 -170 19 -178
5z"/>
<path d="M267 303 c-13 -13 -19 -14 -31 -3 -9 7 -16 8 -16 2 0 -5 7 -15 16
-22 13 -11 19 -10 36 8 12 12 20 24 17 26 -3 3 -13 -2 -22 -11z"/>
<path d="M317 304 c-16 -16 10 -24 79 -24 59 0 74 3 74 15 0 12 -15 15 -73 15
-41 0 -77 -3 -80 -6z"/>
<path d="M458 233 l-107 -75 21 -29 21 -28 61 43 c34 24 82 58 109 77 26 18
47 37 47 42 0 17 -21 47 -33 47 -7 -1 -60 -35 -119 -77z"/>
<path d="M310 100 c-9 -18 -8 -20 15 -20 23 0 24 2 15 20 -6 11 -13 20 -15 20
-2 0 -9 -9 -15 -20z"/>
</g>
</svg>
