<svg xmlns="http://www.w3.org/2000/svg" width="40" height="40" viewBox="0 0 40 40">
    <g fill="none" fill-rule="evenodd">
        <g fill="#0072BC">
            <g>
                <g>
                    <path d="M7.2 25.065h12.266v2.756H18.4c-.183 0-.362.095-.461.266l-1.599 2.777c-.147.255-.06.582.194.73.253.148.578.06.727-.193l1.446-2.512h.76v2.243c0 .297.239.535.534.535.293 0 .533-.238.533-.535V28.89h.761l1.444 2.51c.146.253.472.341.727.194.252-.145.34-.471.194-.727l-1.575-2.734c-.084-.186-.27-.314-.485-.314h-1.066v-2.753H32.8c.294 0 .533-.24.533-.537V8.486c0-.296-.24-.537-.533-.537H7.2c-.294 0-.533.24-.533.537v16.042c0 .296.24.537.533.537zm16.232-10.259c-1.005-.68-2.457-.28-3.416-.016-.147.04-.28.077-.397.105-.195.05-.38.092-.562.126-.023.005-.048-.008-.06-.027l-1.723-2.849c-.188-.413-.67-.594-1.073-.4-.4.19-.574.664-.396 1.086l2.39 5.774c-.171-.01-.45-.046-.688-.077-.931-.116-1.615-.187-1.962-.023-.316.152-.662.611-.506 1.014.11.284.536.453 2.17.969l.337.106c.294.094.595.234.914.381 1.124.524 2.523 1.173 4.65.155l.033-.017c.958-.457 1.552-1.127 1.767-1.988.437-1.736-.828-3.88-1.478-4.319z" transform="translate(-649 -362) translate(599 362) translate(50)"/>
                </g>
            </g>
        </g>
    </g>
</svg>
