<svg xmlns="http://www.w3.org/2000/svg" width="24" height="24" viewBox="0 0 24 24">
    <g fill="#fff" fill-rule="evenodd">
        <path d="M16.174 8.714c.302 0 .561.014.818-.004.297-.02.777.135.848-.075.09-.271-.294-.548-.47-.824-.008-.012-.02-.02-.028-.032-.087-.126-.176-.108-.271-.007-.283.299-.567.596-.897.942zm-1.416 1.59L11.02 14.02c1.106 0 2.294-.001 3.482.001.248 0 .252-.182.268-.344.114-1.153.14-2.305-.013-3.374zm2.473 3.718c.322 0 .645-.008.967.003.214.007.325-.062.384-.284a6.806 6.806 0 0 0-.003-3.55c-.052-.195-.139-.277-.346-.274-.672.009-1.345.01-2.018 0-.238-.004-.284.101-.26.305a15.041 15.041 0 0 1 0 3.504c-.025.212.037.308.267.299.336-.013.673-.003 1.009-.003zm-5.235 1.199H9.85c-.18-.001-.353-.013-.273.261.273.942.598 1.86 1.259 2.615.76.866 1.545.871 2.31.014.647-.726.972-1.614 1.26-2.523.106-.333-.02-.377-.307-.372-.7.013-1.402.005-2.103.005zm2.6 2.94c.054-.002.116.012.161-.008a6.791 6.791 0 0 0 3.045-2.65c.132-.21.1-.289-.158-.285-.56.009-1.119.006-1.678 0-.154 0-.267.02-.306.2-.212.968-.614 1.866-1.05 2.75v.007l-.014-.014zm-5.16-.02a3.136 3.136 0 0 1-.026.02l.026-.017c-.307-.422-.5-.901-.692-1.379-.205-.51-.198-.512-.592-.12-.557.554-.566.57.13.988.36.215.685.532 1.153.507zm2.558 1.79c-1.842-.013-3.496-.57-4.942-1.707-.208-.164-.33-.178-.518.022-.4.43-.829.833-1.246 1.247-.435.432-.796.5-1.08.206-.287-.296-.225-.6.215-1.038L17.665 5.49c.397-.395.79-.794 1.191-1.183.33-.32.657-.338.924-.07.263.264.241.59-.08.919-.441.45-.881.9-1.342 1.33-.224.208-.254.343-.047.609 3.398 4.37 1.434 10.726-3.838 12.447a7.555 7.555 0 0 1-2.48.39zM9.438 5.81a.192.192 0 0 0-.198-.021c-1.296.584-2.322 1.474-3.063 2.686-.144.236-.013.25.172.25.531-.003 1.063-.02 1.593.006.288.014.38-.104.442-.358.22-.908.531-1.781 1.045-2.572l-.02-.008.029.017m5.148-.015l.016.039c.573 1.047.573 1.047-.407 1.842-.136-.293-.265-.582-.404-.867-.223-.455-.503-.87-.89-1.207-.602-.522-1.214-.527-1.806.008-.79.712-1.153 1.663-1.455 2.643-.144.467-.136.47.365.47h3.155c-.653.58-.996 1.366-1.995 1.21-.494-.077-1.01.005-1.514-.02-.315-.016-.423.107-.435.401-.027.655-.13 1.31-.076 1.965.03.356-.076.607-.346.833-.235.196-.433.436-.723.733-.04-.354-.092-.618-.096-.883-.014-.851-.065-1.704.067-2.55.054-.342-.01-.506-.42-.48-.6.04-1.206.02-1.81.007-.219-.005-.327.064-.383.28a6.968 6.968 0 0 0 .005 3.558c.054.208.159.287.382.282a19.688 19.688 0 0 1 1.905.042c-.519.416-.745 1.206-1.597 1.146-.103.17.22.282.049.45-.24.235-.466.487-.731.69-.106.081-.168-.109-.221-.193-.696-1.107-1.121-2.313-1.203-3.615-.263-4.138 2.445-7.643 6.54-8.433 2.023-.39 3.925.016 5.69 1.077.248.15.219.242.035.426-.575.576-.566.58-1.32.232-.119-.054-.235-.174-.387-.08.005-.015.008-.028.01-.042v.036"/>
    </g>
</svg>
