<svg xmlns="http://www.w3.org/2000/svg" width="16" height="16" style=""><rect id="backgroundrect" width="100%" height="100%" x="0" y="0" fill="none" stroke="none"/>

  <g fill="#FFF" fill-rule="evenodd" id="svg_1" class="">
    <path
      d="M12.173601703137159,4.713454364180565 c0.3020000000000001,0 0.561,0.014000000000000004 0.8180000000000002,-0.004000000000000002 c0.2970000000000001,-0.020000000000000007 0.777,0.135 0.8480000000000002,-0.07500000000000002 c0.09000000000000004,-0.271 -0.2940000000000001,-0.548 -0.4700000000000001,-0.8240000000000002 c-0.008000000000000004,-0.012000000000000004 -0.020000000000000007,-0.020000000000000007 -0.028000000000000008,-0.032000000000000015 c-0.08700000000000004,-0.126 -0.17600000000000005,-0.10800000000000003 -0.271,-0.007000000000000004 c-0.2830000000000001,0.2990000000000001 -0.5670000000000002,0.5960000000000002 -0.8970000000000002,0.9420000000000002 zm-1.416,1.59 L7.019601703137159,10.019454364180564 c1.106,0 2.294,-0.0010000000000000005 3.482,0.0010000000000000005 c0.24800000000000005,0 0.252,-0.18200000000000005 0.268,-0.3440000000000002 c0.11400000000000003,-1.153 0.14,-2.305 -0.013000000000000006,-3.374 zm2.473,3.718 c0.3220000000000001,0 0.6450000000000002,-0.008000000000000004 0.9670000000000002,0.003000000000000002 c0.21400000000000005,0.007000000000000004 0.3250000000000001,-0.06200000000000002 0.3840000000000001,-0.2840000000000001 a6.806,6.806 0 0 0 -0.003000000000000002,-3.55 c-0.05200000000000002,-0.19500000000000006 -0.139,-0.277 -0.3460000000000002,-0.274 c-0.6720000000000004,0.009000000000000006 -1.3450000000000002,0.010000000000000004 -2.018,0 c-0.23800000000000004,-0.004000000000000002 -0.2840000000000001,0.101 -0.26,0.3050000000000001 a15.041,15.041 0 0 1 0,3.504 c-0.02500000000000001,0.21200000000000005 0.03700000000000001,0.3080000000000001 0.267,0.2990000000000001 c0.3360000000000002,-0.013000000000000006 0.6730000000000004,-0.003000000000000002 1.009,-0.003000000000000002 zm-5.235,1.199 H5.849601703137159 c-0.18000000000000005,-0.0010000000000000005 -0.3530000000000001,-0.013000000000000006 -0.273,0.261 c0.273,0.9420000000000002 0.5980000000000002,1.86 1.259,2.615 c0.7600000000000002,0.8660000000000002 1.545,0.8710000000000002 2.31,0.014000000000000004 c0.6470000000000002,-0.7260000000000002 0.972,-1.614 1.26,-2.523 c0.10600000000000002,-0.3330000000000002 -0.020000000000000007,-0.3770000000000001 -0.3070000000000001,-0.3720000000000001 c-0.7000000000000002,0.013000000000000006 -1.4020000000000001,0.005000000000000002 -2.103,0.005000000000000002 zm2.6,2.94 c0.05400000000000002,-0.002000000000000001 0.11600000000000003,0.012000000000000004 0.16100000000000006,-0.008000000000000004 a6.791,6.791 0 0 0 3.045,-2.6500000000000004 c0.132,-0.21000000000000005 0.1,-0.2890000000000001 -0.15800000000000006,-0.2850000000000001 c-0.56,0.009000000000000006 -1.119,0.006000000000000004 -1.6780000000000004,0 c-0.15400000000000005,0 -0.267,0.020000000000000007 -0.3060000000000001,0.2 c-0.21200000000000005,0.9680000000000002 -0.6140000000000002,1.866 -1.05,2.75 v0.007000000000000004 l-0.014000000000000004,-0.014000000000000004 zm-5.16,-0.020000000000000007 a3.136,3.136 0 0 1 -0.026000000000000013,0.020000000000000007 l0.026000000000000013,-0.017000000000000008 c-0.3070000000000001,-0.4220000000000001 -0.5,-0.901 -0.6920000000000004,-1.379 c-0.20500000000000004,-0.51 -0.19800000000000006,-0.512 -0.5920000000000002,-0.12000000000000002 c-0.557,0.554 -0.5660000000000002,0.5700000000000002 0.13,0.988 c0.3600000000000001,0.21500000000000005 0.6850000000000004,0.532 1.153,0.507 zm2.558,1.79 c-1.842,-0.013000000000000006 -3.496,-0.5700000000000002 -4.942,-1.707 c-0.20800000000000005,-0.16400000000000006 -0.3300000000000001,-0.17800000000000005 -0.518,0.022000000000000013 c-0.4,0.4300000000000001 -0.8290000000000002,0.8330000000000002 -1.246,1.247 c-0.4350000000000001,0.4320000000000001 -0.796,0.5 -1.08,0.20600000000000004 c-0.2870000000000001,-0.2960000000000001 -0.22500000000000006,-0.6000000000000002 0.21500000000000005,-1.038 L13.664601703137158,1.489454364180565 c0.3970000000000002,-0.3950000000000002 0.79,-0.794 1.191,-1.183 c0.3300000000000001,-0.3200000000000001 0.6570000000000003,-0.3380000000000002 0.924,-0.07 c0.263,0.264 0.24100000000000005,0.5900000000000002 -0.08000000000000003,0.919 c-0.4410000000000001,0.45 -0.8810000000000002,0.9 -1.342,1.33 c-0.22400000000000006,0.20800000000000005 -0.254,0.3430000000000002 -0.047000000000000014,0.6090000000000002 c3.398,4.37 1.4340000000000002,10.726 -3.838,12.447 a7.555,7.555 0 0 1 -2.48,0.3900000000000001 zM5.43760170313716,1.8094543641805654 a0.19200000000000006,0.19200000000000006 0 0 0 -0.19800000000000006,-0.021000000000000008 c-1.296,0.5840000000000002 -2.322,1.474 -3.063,2.686 c-0.14400000000000004,0.23600000000000004 -0.013000000000000006,0.25 0.17200000000000001,0.25 c0.531,-0.003000000000000002 1.063,-0.020000000000000007 1.593,0.006000000000000004 c0.2880000000000001,0.014000000000000004 0.3800000000000001,-0.10400000000000002 0.4420000000000001,-0.3580000000000001 c0.22000000000000006,-0.908 0.531,-1.7810000000000001 1.045,-2.572 l-0.020000000000000007,-0.008000000000000004 l0.02900000000000001,0.017000000000000008 m5.148,-0.015000000000000006 l0.016000000000000007,0.039000000000000014 c0.5730000000000002,1.047 0.5730000000000002,1.047 -0.4070000000000001,1.842 c-0.136,-0.2930000000000001 -0.265,-0.5820000000000002 -0.404,-0.8670000000000002 c-0.22300000000000006,-0.455 -0.503,-0.8700000000000002 -0.8900000000000002,-1.207 c-0.6020000000000002,-0.522 -1.214,-0.527 -1.806,0.008000000000000004 c-0.79,0.7120000000000002 -1.153,1.6630000000000005 -1.455,2.6430000000000002 c-0.14400000000000004,0.467 -0.136,0.4700000000000001 0.3650000000000001,0.4700000000000001 h3.1550000000000002 c-0.6530000000000002,0.5800000000000002 -0.996,1.366 -1.995,1.21 c-0.4940000000000001,-0.07700000000000003 -1.01,0.005000000000000002 -1.514,-0.020000000000000007 c-0.3150000000000001,-0.016000000000000007 -0.4230000000000001,0.10700000000000003 -0.4350000000000001,0.401 c-0.027000000000000014,0.6550000000000002 -0.13,1.31 -0.07600000000000003,1.965 c0.030000000000000013,0.3560000000000001 -0.07600000000000003,0.6070000000000002 -0.3460000000000002,0.8330000000000002 c-0.23500000000000001,0.19600000000000006 -0.4330000000000001,0.4360000000000001 -0.7230000000000002,0.7330000000000002 c-0.040000000000000015,-0.3540000000000001 -0.09200000000000005,-0.6180000000000002 -0.09600000000000006,-0.8830000000000002 c-0.014000000000000004,-0.8510000000000002 -0.06500000000000003,-1.7040000000000002 0.06700000000000003,-2.55 c0.05400000000000002,-0.3420000000000002 -0.010000000000000004,-0.506 -0.4200000000000001,-0.4800000000000001 c-0.6000000000000002,0.040000000000000015 -1.206,0.020000000000000007 -1.81,0.007000000000000004 c-0.21900000000000006,-0.005000000000000002 -0.3270000000000001,0.06400000000000003 -0.3830000000000001,0.28 a6.968,6.968 0 0 0 0.005000000000000002,3.558 c0.05400000000000002,0.20800000000000005 0.15900000000000006,0.2870000000000001 0.3820000000000001,0.2820000000000001 a19.688,19.688 0 0 1 1.905,0.042000000000000016 c-0.519,0.4160000000000001 -0.7450000000000002,1.206 -1.597,1.146 c-0.10300000000000002,0.17 0.22000000000000006,0.2820000000000001 0.049000000000000016,0.45 c-0.24000000000000005,0.23500000000000001 -0.466,0.4870000000000001 -0.7310000000000002,0.6900000000000004 c-0.10600000000000002,0.08100000000000003 -0.16800000000000007,-0.10900000000000003 -0.22100000000000006,-0.19300000000000006 c-0.6960000000000004,-1.107 -1.121,-2.313 -1.203,-3.615 c-0.263,-4.138 2.4450000000000003,-7.643 6.54,-8.433 c2.023,-0.3900000000000001 3.925,0.016000000000000007 5.69,1.077 c0.24800000000000005,0.15000000000000005 0.21900000000000006,0.24200000000000005 0.035,0.4260000000000001 c-0.5750000000000002,0.5760000000000002 -0.5660000000000002,0.5800000000000002 -1.32,0.232 c-0.11900000000000004,-0.05400000000000002 -0.23500000000000001,-0.17400000000000004 -0.3870000000000001,-0.08000000000000003 c0.005000000000000002,-0.015000000000000006 0.008000000000000004,-0.028000000000000008 0.010000000000000004,-0.042000000000000016 v0.03600000000000001 "
      id="svg_2"/>
  </g>
</svg>
